<?xml version="1.0" encoding="UTF-8"?>
<svg width="479px" height="219px" viewBox="0 0 479 219" version="1.1" xmlns="http://www.w3.org/2000/svg" xmlns:xlink="http://www.w3.org/1999/xlink">
    <!-- Generator: Sketch 52.3 (67297) - http://www.bohemiancoding.com/sketch -->
    <title>Group 4</title>
    <desc>Created with Sketch.</desc>
    <g id="Page-1" stroke="none" stroke-width="1" fill="none" fill-rule="evenodd">
        <g id="styleguide_proto" transform="translate(-139.000000, -87.000000)" fill="#000000">
            <g id="Group-4" transform="translate(86.000000, 76.000000)">
                <path d="M103.3056,140.1 C73.1556,140.1 53.9556,120.9 53.9556,90.75 C53.9556,60.75 73.1556,41.7 103.4556,41.7 C133.7556,41.7 152.9556,60.75 152.9556,90.45 C152.9556,120.3 133.1556,140.1 103.3056,140.1 Z M103.6056,64.2 C90.4056,64.2 82.6056,74.1 82.6056,90.6 C82.6056,107.25 90.4056,117.3 103.4556,117.3 C116.5056,117.3 124.0056,107.55 124.0056,90.9 C124.0056,74.1 116.3556,64.2 103.6056,64.2 Z M195.9612,136.65 L165.0612,136.65 C165.9612,129.75 166.2612,123.45 166.2612,114 L166.2612,67.8 C166.2612,56.4 165.9612,51 165.0612,45.15 L194.7612,45.15 L194.7612,51.45 C194.7612,52.05 194.7612,52.05 194.6112,53.55 L194.6112,55.05 C202.2612,46.65 211.4112,42.75 223.2612,42.75 C231.0612,42.75 237.5112,44.55 242.4612,48.15 C245.1612,50.1 246.6612,51.9 248.6112,55.65 C257.9112,46.5 267.0612,42.6 280.1112,42.6 C301.5612,42.6 312.5112,54.3 312.5112,76.95 L312.5112,114.15 C312.5112,123.45 312.8112,129.6 313.7112,136.65 L282.5112,136.65 C283.4112,129.6 283.7112,124.2 283.7112,114 L283.7112,83.1 C283.7112,71.85 280.4112,67.5 271.8612,67.5 C264.2112,67.5 257.3112,73.5 253.5612,83.55 L253.5612,114.15 C253.5612,123.15 253.8612,129.45 254.7612,136.65 L223.5612,136.65 C224.4612,129.9 224.7612,123.6 224.7612,114 L224.7612,83.1 C224.7612,76.8 224.1612,73.95 222.2112,71.4 C220.5612,69 217.5612,67.65 213.9612,67.65 C205.8612,67.65 198.9612,73.5 194.7612,83.7 L194.7612,114 C194.7612,123.45 195.0612,129.3 195.9612,136.65 Z M420.4668,99.3 L352.9668,99.3 C354.4668,111.45 361.5168,117.9 373.3668,117.9 C379.3668,117.9 384.6168,115.95 388.5168,112.35 C390.7668,110.25 391.8168,108.6 393.0168,104.7 L419.1168,112.05 C415.6668,119.85 413.4168,123.3 409.2168,127.5 C400.6668,135.9 388.6668,140.25 373.8168,140.25 C359.1168,140.25 347.5668,136.05 339.0168,127.5 C330.1668,118.5 325.3668,105.75 325.3668,90.9 C325.3668,61.2 344.4168,41.55 373.0668,41.55 C396.4668,41.55 412.8168,54.3 418.0668,76.65 C419.2668,81.45 419.8668,87.75 420.3168,96.3 C420.3168,96.9 420.3168,97.8 420.4668,99.3 Z M353.4168,78.6 L391.9668,78.6 C389.8668,69 383.4168,63.9 373.0668,63.9 C362.4168,63.9 355.9668,68.7 353.4168,78.6 Z M502.4724,136.65 L502.4724,131.85 C502.4724,130.95 502.4724,129.9 502.6224,128.55 C492.5724,136.65 484.9224,139.35 472.3224,139.35 C445.0224,139.35 428.5224,121.05 428.5224,90.75 C428.5224,75.15 433.0224,62.7 441.4224,54.15 C449.0724,46.5 459.5724,42.45 471.8724,42.45 C484.0224,42.45 492.7224,45.6 502.6224,53.55 C502.4724,51.3 502.4724,49.95 502.4724,47.85 L502.4724,35.4 C502.4724,24.9 502.1724,18.45 501.2724,11.85 L532.0224,11.85 C531.1224,18.15 530.8224,25.35 530.8224,35.4 L530.8224,113.1 C530.8224,123.15 531.1224,129.3 532.0224,136.65 L502.4724,136.65 Z M478.9224,65.4 C465.8724,65.4 457.6224,75.15 457.6224,90.9 C457.6224,99.45 460.0224,106.35 464.5224,110.7 C468.1224,114.3 473.5224,116.4 479.0724,116.4 C492.4224,116.4 502.1724,105.3 502.1724,90.45 C502.1724,75.9 492.5724,65.4 478.9224,65.4 Z" id="omed"></path>
                <path d="M102.379273,189.176777 L102.379273,184.489777 C102.379273,177.295777 98.4552727,174.134777 89.8442727,174.134777 C81.8872727,174.134777 77.9632727,177.186777 76.1102727,182.200777 C75.3472727,184.271777 73.7122727,185.034777 71.8592727,185.034777 C70.9872727,185.034777 70.1152727,184.925777 69.3522727,184.598777 C67.2812727,183.944777 65.7552727,182.418777 65.7552727,180.456777 C65.7552727,180.020777 65.8642727,179.584777 65.9732727,179.148777 C67.0632727,175.769777 69.8972727,172.608777 72.4042727,170.646777 C76.2192727,167.703777 81.1242727,165.850777 89.9532727,165.850777 C104.559273,165.850777 111.753273,171.627777 111.753273,184.489777 L111.753273,214.246777 C111.753273,218.061777 112.298273,221.767777 112.952273,223.838777 C113.061273,224.165777 113.170273,224.601777 113.170273,224.928777 C113.170273,226.672777 111.535273,228.198777 108.810273,228.416777 L107.829273,228.416777 C105.649273,228.416777 103.687273,227.762777 103.251273,225.800777 C102.924273,224.492777 102.706273,222.530777 102.597273,220.350777 C98.4552727,225.037777 92.6782727,229.288777 81.8872727,229.288777 C69.8972727,229.288777 62.5942727,222.530777 62.5942727,211.303777 C62.5942727,201.057777 68.6982727,194.517777 79.0532727,191.683777 C85.0482727,190.048777 90.7162727,189.394777 102.379273,189.176777 Z M102.379273,204.327777 L102.379273,197.024777 C89.6262727,197.351777 83.6312727,198.441777 79.2712727,200.621777 C74.9112727,202.801777 72.6222727,206.180777 72.6222727,211.412777 C72.6222727,217.080777 76.9822727,220.895777 83.5222727,220.895777 C90.3892727,220.895777 96.0572727,217.516777 99.5452727,213.156777 C101.616273,210.540777 102.379273,208.469777 102.379273,204.327777 Z M146.930545,201.275777 L140.717545,200.076777 C127.310545,197.460777 121.751545,192.773777 121.751545,182.418777 C121.751545,172.499777 130.253545,165.741777 144.314545,165.741777 C156.413545,165.741777 164.152545,170.864777 166.877545,178.821777 C166.986545,179.257777 167.095545,179.693777 167.095545,180.129777 C167.095545,182.200777 165.242545,183.617777 163.280545,184.162777 C162.735545,184.271777 162.081545,184.380777 161.536545,184.380777 C159.574545,184.380777 157.612545,183.508777 157.067545,181.437777 C155.650545,176.532777 150.854545,174.025777 144.641545,174.025777 C135.812545,174.025777 131.670545,177.622777 131.670545,182.200777 C131.670545,187.214777 133.741545,189.394777 142.897545,191.356777 L149.655545,192.773777 C163.825545,195.716777 169.493545,199.858777 169.493545,211.303777 C169.493545,221.767777 160.555545,229.506777 145.295545,229.506777 C131.343545,229.506777 123.168545,223.947777 120.334545,214.246777 C120.225545,213.701777 120.116545,213.265777 120.116545,212.829777 C120.116545,210.649777 121.969545,209.123777 124.040545,208.687777 C124.585545,208.578777 125.130545,208.469777 125.566545,208.469777 C127.637545,208.469777 129.599545,209.341777 130.253545,211.412777 C132.215545,217.734777 136.684545,220.895777 145.295545,220.895777 C154.015545,220.895777 159.683545,217.080777 159.683545,211.521777 C159.683545,206.180777 156.849545,203.237777 146.930545,201.275777 Z M200.746818,201.275777 L194.533818,200.076777 C181.126818,197.460777 175.567818,192.773777 175.567818,182.418777 C175.567818,172.499777 184.069818,165.741777 198.130818,165.741777 C210.229818,165.741777 217.968818,170.864777 220.693818,178.821777 C220.802818,179.257777 220.911818,179.693777 220.911818,180.129777 C220.911818,182.200777 219.058818,183.617777 217.096818,184.162777 C216.551818,184.271777 215.897818,184.380777 215.352818,184.380777 C213.390818,184.380777 211.428818,183.508777 210.883818,181.437777 C209.466818,176.532777 204.670818,174.025777 198.457818,174.025777 C189.628818,174.025777 185.486818,177.622777 185.486818,182.200777 C185.486818,187.214777 187.557818,189.394777 196.713818,191.356777 L203.471818,192.773777 C217.641818,195.716777 223.309818,199.858777 223.309818,211.303777 C223.309818,221.767777 214.371818,229.506777 199.111818,229.506777 C185.159818,229.506777 176.984818,223.947777 174.150818,214.246777 C174.041818,213.701777 173.932818,213.265777 173.932818,212.829777 C173.932818,210.649777 175.785818,209.123777 177.856818,208.687777 C178.401818,208.578777 178.946818,208.469777 179.382818,208.469777 C181.453818,208.469777 183.415818,209.341777 184.069818,211.412777 C186.031818,217.734777 190.500818,220.895777 199.111818,220.895777 C207.831818,220.895777 213.499818,217.080777 213.499818,211.521777 C213.499818,206.180777 210.665818,203.237777 200.746818,201.275777 Z M231.128091,224.056777 L231.128091,170.973777 C231.128091,168.139777 232.981091,166.722777 236.033091,166.722777 C238.976091,166.722777 241.047091,168.139777 241.047091,170.973777 L241.047091,224.056777 C241.047091,226.999777 238.976091,228.416777 236.033091,228.416777 C232.981091,228.416777 231.128091,226.999777 231.128091,224.056777 Z M236.142091,142.088777 C240.175091,142.088777 243.445091,145.249777 243.445091,149.391777 C243.445091,153.642777 240.175091,156.803777 236.142091,156.803777 C232.000091,156.803777 228.730091,153.642777 228.730091,149.391777 C228.730091,145.249777 232.000091,142.088777 236.142091,142.088777 Z M275.570363,201.275777 L269.357363,200.076777 C255.950363,197.460777 250.391363,192.773777 250.391363,182.418777 C250.391363,172.499777 258.893363,165.741777 272.954363,165.741777 C285.053363,165.741777 292.792363,170.864777 295.517363,178.821777 C295.626363,179.257777 295.735363,179.693777 295.735363,180.129777 C295.735363,182.200777 293.882363,183.617777 291.920363,184.162777 C291.375363,184.271777 290.721363,184.380777 290.176363,184.380777 C288.214363,184.380777 286.252363,183.508777 285.707363,181.437777 C284.290363,176.532777 279.494363,174.025777 273.281363,174.025777 C264.452363,174.025777 260.310363,177.622777 260.310363,182.200777 C260.310363,187.214777 262.381363,189.394777 271.537363,191.356777 L278.295363,192.773777 C292.465363,195.716777 298.133363,199.858777 298.133363,211.303777 C298.133363,221.767777 289.195363,229.506777 273.935363,229.506777 C259.983363,229.506777 251.808363,223.947777 248.974363,214.246777 C248.865363,213.701777 248.756363,213.265777 248.756363,212.829777 C248.756363,210.649777 250.609363,209.123777 252.680363,208.687777 C253.225363,208.578777 253.770363,208.469777 254.206363,208.469777 C256.277363,208.469777 258.239363,209.341777 258.893363,211.412777 C260.855363,217.734777 265.324363,220.895777 273.935363,220.895777 C282.655363,220.895777 288.323363,217.080777 288.323363,211.521777 C288.323363,206.180777 285.489363,203.237777 275.570363,201.275777 Z M312.382636,167.376777 L312.382636,154.187777 C312.382636,151.353777 314.235636,149.827777 317.287636,149.827777 C320.121636,149.827777 322.192636,151.353777 322.192636,154.187777 L322.192636,167.376777 L336.144636,167.376777 C338.869636,167.376777 340.177636,169.120777 340.177636,171.736777 C340.177636,174.243777 338.760636,175.987777 336.144636,175.987777 L322.192636,175.987777 L322.192636,212.502777 C322.192636,217.843777 324.481636,220.132777 328.514636,220.132777 C331.239636,220.132777 333.092636,219.369777 334.945636,218.279777 C335.599636,217.952777 336.253636,217.734777 336.907636,217.734777 C338.542636,217.734777 339.850636,218.933777 340.504636,220.568777 C340.831636,221.331777 340.940636,222.203777 340.940636,222.966777 C340.940636,224.492777 340.286636,226.018777 338.651636,226.890777 C335.490636,228.416777 332.547636,229.288777 327.860636,229.288777 C318.922636,229.288777 312.382636,224.819777 312.382636,213.374777 L312.382636,175.987777 L303.880636,175.987777 C301.264636,175.987777 300.065636,174.243777 300.065636,171.736777 C300.065636,169.229777 301.264636,167.376777 303.989636,167.376777 L312.382636,167.376777 Z" id="assist"></path>
            </g>
        </g>
    </g>
</svg>
